<?xml version="1.0" encoding="UTF-8"?>
<svg width="24px" height="24px" viewBox="0 0 24 24" version="1.1" xmlns="http://www.w3.org/2000/svg" xmlns:xlink="http://www.w3.org/1999/xlink">
    <title>icon_chat_stroke_24 copy</title>
    <g id="页面-1" stroke="none" stroke-width="1" fill="none" fill-rule="evenodd">
        <g id="图标-for-iOS" transform="translate(-100.000000, -172.000000)">
            <g id="编组" transform="translate(100.000000, 172.000000)">
                <rect id="矩形" fill="#b2b2b2" opacity="0" x="0" y="0" width="24" height="24"></rect>
                <g id="编组">
                    <rect id="矩形" fill="#b2b2b2" opacity="0" x="0" y="0" width="24" height="24"></rect>
                    <path d="M20,3.75 C20.345178,3.75 20.657678,3.88991102 20.8838835,4.11611652 C21.110089,4.34232203 21.25,4.65482203 21.25,5 L21.25,5 L21.25,15 C21.25,15.345178 21.110089,15.657678 20.8838835,15.8838835 C20.657678,16.110089 20.345178,16.25 20,16.25 L20,16.25 L14.1649809,16.25 L12,19.999967 L9.83501905,16.25 L4,16.25 C3.65482203,16.25 3.34232203,16.110089 3.11611652,15.8838835 C2.88991102,15.657678 2.75,15.345178 2.75,15 L2.75,15 L2.75,5 C2.75,4.65482203 2.88991102,4.34232203 3.11611652,4.11611652 C3.34232203,3.88991102 3.65482203,3.75 4,3.75 L4,3.75 Z" id="形状结合" stroke="#b2b2b2" stroke-width="1.5"></path>
                    <line x1="7" y1="9.75" x2="17" y2="9.75" id="路径-3" stroke="#b2b2b2" stroke-width="1.5"></line>
                </g>
            </g>
        </g>
    </g>
</svg>
