<?xml version="1.0" encoding="UTF-8"?>
<svg width="24px" height="24px" viewBox="0 0 24 24" version="1.1" xmlns="http://www.w3.org/2000/svg" xmlns:xlink="http://www.w3.org/1999/xlink">
<title>icon_tools_fill_24 copy</title>
<g id="页面-1" stroke="none" stroke-width="1" fill="none" fill-rule="evenodd">
    <g id="图标-for-iOS" transform="translate(-444.000000, -172.000000)">
        <g id="编组" transform="translate(332.000000, 172.000000)">
            <g id="编组-9" transform="translate(112.000000, 0.000000)">
                <g id="编组">
                    <path d="M20,14.5 C21.4625318,14.5 22.6584043,15.6417046 22.7449812,17.0824777 L22.75,17.25 L22.75,19 L18,18.9997031 L18,17 C18,16.0889378 17.7563301,15.2347877 17.3306064,14.4991658 L20,14.5 Z" id="形状" fill="#3a89f0" fill-rule="nonzero"></path>
                    <circle id="椭圆形" fill="#3a89f0" cx="17.5" cy="11" r="2.5"></circle>
                    <path d="M13,13 C15.209139,13 17,14.790861 17,17 L17,20 L3,20 L3,17 C3,14.790861 4.790861,13 7,13 L13,13 Z M10,4 C12.209139,4 14,5.790861 14,8 C14,10.209139 12.209139,12 10,12 C7.790861,12 6,10.209139 6,8 C6,5.790861 7.790861,4 10,4 Z" id="形状结合" fill="#3a89f0"></path>
                </g>
                <rect id="矩形" fill="#E4E6E9" opacity="0" x="0" y="0" width="24" height="24"></rect>
            </g>
        </g>
    </g>
</g>
</svg>

