<?xml version="1.0" encoding="UTF-8"?>
<svg width="32px" height="32px" viewBox="0 0 32 32" version="1.1" xmlns="http://www.w3.org/2000/svg" xmlns:xlink="http://www.w3.org/1999/xlink">
    <title>icon_folder_fill_32</title>
    <defs>
        <filter id="filter-1">
            <feColorMatrix in="SourceGraphic" type="matrix" values="0 0 0 0 0.176471 0 0 0 0 0.188235 0 0 0 0 0.203922 0 0 0 1.000000 0"></feColorMatrix>
        </filter>
    </defs>
    <g id="页面-1" stroke="none" stroke-width="1" fill="none" fill-rule="evenodd">
        <g id="图标" transform="translate(-316.000000, -574.000000)">
            <g id="编组-24" transform="translate(316.000000, 574.000000)">
                <rect id="矩形" fill="#E4E6E9" opacity="0" x="0" y="0" width="32" height="32"></rect>
                <g id="icon_folder_fill_32" filter="url(#filter-1)">
                    <g>
                        <path d="M13.232673,5 C13.6852787,5 14.0814559,5.30399744 14.1985988,5.74118095 L15.071,9 L28,9 C28.5522847,9 29,9.44771525 29,10 L29,26 C29,26.5522847 28.5522847,27 28,27 L4,27 C3.44771525,27 3,26.5522847 3,26 L3,6 C3,5.44771525 3.44771525,5 4,5 L13.232673,5 Z M27,23 L5,23 L5,25 L27,25 L27,23 Z" id="形状结合" fill="#6E6E6E"></path>
                    </g>
                </g>
            </g>
        </g>
    </g>
</svg>
