<?xml version="1.0" encoding="UTF-8"?>
<svg width="24px" height="24px" viewBox="0 0 24 24" version="1.1" xmlns="http://www.w3.org/2000/svg" xmlns:xlink="http://www.w3.org/1999/xlink">
<title>icon_contact_stroke_24 copy</title>
<g id="页面-1" stroke="none" stroke-width="1" fill="none" fill-rule="evenodd">
    <g id="图标-for-iOS" transform="translate(-156.000000, -172.000000)">
        <g id="编组-3" transform="translate(156.000000, 172.000000)">
            <rect id="矩形" fill="#b2b2b2" opacity="0" x="0" y="0" width="24" height="24"></rect>
            <g id="编组">
                <path d="M20,14.5 C21.4625318,14.5 22.6584043,15.6417046 22.7449812,17.0824777 L22.75,17.25 L22.75,19 L18,18.9991658 L18,17.4991658 L21.25,17.5 L21.25,17.25 C21.25,16.6459386 20.8215225,16.1419534 20.2519186,16.0253956 L20.1278052,16.0064536 L20,16 L17.8998859,15.9995274 C17.7908923,15.4628518 17.5959391,14.9573966 17.3300241,14.49816 L20,14.5 Z" id="路径" fill="#b2b2b2" fill-rule="nonzero"></path>
                <circle id="椭圆形" stroke="#b2b2b2" stroke-width="1.5" cx="17.5" cy="11" r="1.75"></circle>
                <path d="M13,13.75 C13.8974627,13.75 14.7099627,14.1137686 15.298097,14.701903 C15.8862314,15.2900373 16.25,16.1025373 16.25,17 L16.25,17 L16.25,19.25 L3.75,19.25 L3.75,17 C3.75,16.1025373 4.11376864,15.2900373 4.70190296,14.701903 C5.29003728,14.1137686 6.10253728,13.75 7,13.75 L7,13.75 Z M10,4.75 C10.8974627,4.75 11.7099627,5.11376864 12.298097,5.70190296 C12.8862314,6.29003728 13.25,7.10253728 13.25,8 C13.25,8.89746272 12.8862314,9.70996272 12.298097,10.298097 C11.7099627,10.8862314 10.8974627,11.25 10,11.25 C9.10253728,11.25 8.29003728,10.8862314 7.70190296,10.298097 C7.11376864,9.70996272 6.75,8.89746272 6.75,8 C6.75,7.10253728 7.11376864,6.29003728 7.70190296,5.70190296 C8.29003728,5.11376864 9.10253728,4.75 10,4.75 Z" id="形状结合" stroke="#b2b2b2" stroke-width="1.5"></path>
            </g>
        </g>
    </g>
</g>
</svg>

