<?xml version="1.0" encoding="UTF-8"?>
<svg width="24px" height="24px" viewBox="0 0 24 24" version="1.1" xmlns="http://www.w3.org/2000/svg" xmlns:xlink="http://www.w3.org/1999/xlink">
<title>icon_tools_fill_24 copy</title>
<g id="页面-1" stroke="none" stroke-width="1" fill="none" fill-rule="evenodd">
    <g id="图标-for-iOS" transform="translate(-444.000000, -172.000000)">
        <g id="编组" transform="translate(332.000000, 172.000000)">
            <g id="编组-9" transform="translate(112.000000, 0.000000)">
                <g id="编组">
                    <rect id="矩形" fill="#b2b2b2" opacity="0" x="0" y="0" width="24" height="24"></rect>
                    <path d="M3.75,21 L3.75,18 C3.75,15.790861 5.540861,14 7.75,14 L14,14 L14,14" id="路径" stroke="#b2b2b2" stroke-width="1.5"></path>
                    <circle id="椭圆形" stroke="#b2b2b2" stroke-width="1.5" cx="12" cy="7.5" r="3.75"></circle>
                    <path d="M19.25,14 L19.25,16.75 L22,16.75 L22,18.25 L19.25,18.25 L19.25,21 L17.75,21 L17.75,18.25 L15,18.25 L15,16.75 L17.75,16.75 L17.75,14 L19.25,14 Z" id="形状结合" fill="#b2b2b2" fill-rule="nonzero" transform="translate(18.500000, 17.500000) rotate(45.000000) translate(-18.500000, -17.500000) "></path>
                </g>
            </g>
        </g>
    </g>
</g>
</svg>
