<?xml version="1.0" encoding="UTF-8"?>
<svg width="24px" height="24px" viewBox="0 0 24 24" version="1.1" xmlns="http://www.w3.org/2000/svg" xmlns:xlink="http://www.w3.org/1999/xlink">
    <title>icon_chat_fill_24</title>
    <g id="页面-1" stroke="none" stroke-width="1" fill="none" fill-rule="evenodd">
        <g id="图标" transform="translate(-332.000000, -172.000000)">
            <g id="编组-7" transform="translate(332.000000, 172.000000)">
                <rect id="矩形" fill="#3a89f0" opacity="0" x="0" y="0" width="24" height="24"></rect>
                <g id="编组">
                    <rect id="矩形" fill="#3a89f0" opacity="0" x="0" y="0" width="24" height="24"></rect>
                    <path d="M20,3 C21.1045695,3 22,3.8954305 22,5 L22,15 C22,16.1045695 21.1045695,17 20,17 L14.598,17 L12,21.5 L9.402,17 L4,17 C2.8954305,17 2,16.1045695 2,15 L2,5 C2,3.8954305 2.8954305,3 4,3 L20,3 Z M17,9 L7,9 L7,10.5 L17,10.5 L17,9 Z" id="形状结合" fill="#3a89f0"></path>
                </g>
            </g>
        </g>
    </g>
</svg>
